<svg width="38" height="38" viewBox="0 0 38 38" fill="none" xmlns="http://www.w3.org/2000/svg">
<g clip-path="url(#clip0_918_2)">
<path d="M25.7133 34.8334C25.2934 34.8334 24.8906 34.6666 24.5937 34.3696C24.2968 34.0727 24.13 33.67 24.13 33.25V29.1334C24.1792 28.6598 24.1285 28.1812 23.9812 27.7285C23.8339 27.2758 23.5933 26.859 23.275 26.505C23.0778 26.2912 22.9434 26.0273 22.8864 25.7421C22.8294 25.457 22.852 25.1616 22.9518 24.8885C23.0516 24.6154 23.2246 24.375 23.452 24.1937C23.6794 24.0124 23.9523 23.8973 24.2408 23.8609C28.1041 23.4017 31.6666 22.1667 31.6666 15.4692C31.6678 14.2185 31.2987 12.9954 30.6058 11.9542C29.9664 10.9957 29.7329 9.82282 29.9566 8.69253C30.0993 7.9552 30.0993 7.19735 29.9566 6.46003C28.771 6.86089 27.6547 7.44308 26.6475 8.18586C26.457 8.3211 26.239 8.41253 26.0091 8.45359C25.7791 8.49465 25.5429 8.48433 25.3175 8.42336C22.4601 7.61595 19.4349 7.61595 16.5775 8.42336C16.352 8.48433 16.1158 8.49465 15.8859 8.45359C15.6559 8.41253 15.4379 8.3211 15.2475 8.18586C14.234 7.43447 13.1059 6.85169 11.9066 6.46003C11.7561 7.19658 11.7561 7.95598 11.9066 8.69253C12.1142 9.83705 11.8702 11.0175 11.2258 11.9859C10.5359 13.0344 10.1672 14.2616 10.165 15.5167C10.165 21.6759 13.1416 23.3225 17.6066 23.8925C17.8988 23.9288 18.1751 24.0458 18.4044 24.2304C18.6338 24.415 18.8071 24.6599 18.905 24.9375C18.997 25.207 19.0147 25.4962 18.9562 25.7749C18.8977 26.0535 18.7651 26.3112 18.5725 26.5209C18.2645 26.85 18.0281 27.2395 17.8782 27.6646C17.7284 28.0897 17.6682 28.5413 17.7016 28.9909V33.25C17.7016 33.67 17.5348 34.0727 17.2379 34.3696C16.9409 34.6666 16.5382 34.8334 16.1183 34.8334C15.6984 34.8334 15.2956 34.6666 14.9987 34.3696C14.7018 34.0727 14.535 33.67 14.535 33.25V32.3475C12.9791 32.5265 11.4032 32.318 9.94739 31.7406C8.49159 31.1633 7.20111 30.235 6.1908 29.0384C5.67147 28.4627 5.04839 27.9901 4.35413 27.645C4.15244 27.593 3.96297 27.5019 3.79652 27.3766C3.63008 27.2514 3.48993 27.0947 3.38407 26.9153C3.27821 26.7359 3.20872 26.5375 3.17956 26.3312C3.1504 26.125 3.16215 25.9151 3.21413 25.7134C3.26611 25.5117 3.35731 25.3222 3.48252 25.1558C3.60772 24.9893 3.76449 24.8492 3.94386 24.7433C4.12323 24.6374 4.3217 24.568 4.52793 24.5388C4.73416 24.5096 4.94411 24.5214 5.1458 24.5734C6.36378 25.0171 7.45208 25.7571 8.31246 26.7267C9.8958 28.31 11.4791 29.7034 14.4875 29.1334C14.4346 28.2833 14.5586 27.4314 14.8516 26.6317C11.59 25.8084 6.93496 23.465 6.93496 15.5484C6.93079 13.6731 7.4817 11.8386 8.5183 10.2759C8.71083 9.98739 8.78457 9.63572 8.72413 9.2942C8.40418 7.58511 8.58565 5.81994 9.24663 4.2117C9.33644 3.99726 9.47237 3.80523 9.64477 3.64925C9.81717 3.49327 10.0218 3.37717 10.2441 3.3092C10.7825 3.15086 12.7141 2.8342 16.3716 5.2092C19.3324 4.4967 22.42 4.4967 25.3808 5.2092C29.0383 2.8342 30.97 3.13503 31.4925 3.3092C31.7148 3.37717 31.9194 3.49327 32.0918 3.64925C32.2642 3.80523 32.4002 3.99726 32.49 4.2117C33.1523 5.82517 33.3337 7.59576 33.0125 9.31003C32.9801 9.46449 32.9788 9.62385 33.0087 9.77881C33.0386 9.93377 33.0991 10.0812 33.1866 10.2125C34.2262 11.7797 34.7773 13.6202 34.77 15.5009C34.77 23.5284 30.1466 25.8559 26.8533 26.5842C27.1434 27.4338 27.2618 28.3326 27.2016 29.2284V33.25C27.2024 33.654 27.0486 34.043 26.772 34.3373C26.4953 34.6317 26.1165 34.8091 25.7133 34.8334Z" fill="#00BB00"/>
</g>
<defs>
<clipPath id="clip0_918_2">
<rect width="38" height="38" fill="white"/>
</clipPath>
</defs>
</svg>
