<svg width="18" height="19" viewBox="0 0 18 19" fill="none" xmlns="http://www.w3.org/2000/svg">
<path d="M12.4872 18V14.8711C12.518 14.4856 12.4651 14.0981 12.3321 13.7342C12.1991 13.3704 11.9891 13.0386 11.7159 12.761C14.2923 12.478 17 11.5159 17 7.10152C16.9998 5.97273 16.5591 4.88722 15.7692 4.06968C16.1433 3.08211 16.1168 1.99052 15.6954 1.02166C15.6954 1.02166 14.7272 0.73869 12.4872 2.21823C10.6066 1.71601 8.6242 1.71601 6.74359 2.21823C4.50359 0.73869 3.53538 1.02166 3.53538 1.02166C3.11395 1.99052 3.0875 3.08211 3.46154 4.06968C2.66575 4.89329 2.22463 5.9886 2.23077 7.12578C2.23077 11.5078 4.93846 12.4699 7.51487 12.7852C7.24492 13.0601 7.03673 13.3879 6.90384 13.7473C6.77096 14.1067 6.71636 14.4896 6.74359 14.8711V18M6.74359 15.5745C2.64103 16.7873 2.64103 13.5533 1 13.149L6.74359 15.5745Z" stroke="#46BE35" stroke-width="2" stroke-linecap="round" stroke-linejoin="round"/>
</svg>
