<svg width="249" height="276" viewBox="0 0 249 276" fill="none" xmlns="http://www.w3.org/2000/svg">
<path d="M239 188.085V86.3072C238.995 81.8452 237.818 77.4629 235.585 73.5998C233.352 69.7367 230.142 66.5288 226.278 64.2978L137.222 13.4089C133.354 11.1757 128.966 10 124.5 10C120.034 10 115.646 11.1757 111.778 13.4089L22.7222 64.2978C18.858 66.5288 15.6484 69.7367 13.4154 73.5998C11.1824 77.4629 10.0046 81.8452 10 86.3072V188.085C10.0046 192.547 11.1824 196.929 13.4154 200.792C15.6484 204.656 18.858 207.863 22.7222 210.094L111.778 260.983C115.646 263.217 120.034 264.392 124.5 264.392C128.966 264.392 133.354 263.217 137.222 260.983L226.278 210.094C230.142 207.863 233.352 204.656 235.585 200.792C237.818 196.929 238.995 192.547 239 188.085Z" fill="#1BADFF"/>
<path d="M13.435 73.0761L124.5 137.323L235.565 73.0761" fill="#1BADFF"/>
<path d="M13.435 73.0761L124.5 137.323L235.565 73.0761M124.5 265.436V137.196M239 188.085V86.3072C238.995 81.8452 237.818 77.4629 235.585 73.5998C233.352 69.7367 230.142 66.5288 226.278 64.2978L137.222 13.4089C133.354 11.1757 128.966 10 124.5 10C120.034 10 115.646 11.1757 111.778 13.4089L22.7222 64.2978C18.858 66.5288 15.6484 69.7367 13.4154 73.5998C11.1824 77.4629 10.0046 81.8452 10 86.3072V188.085C10.0046 192.547 11.1824 196.929 13.4154 200.792C15.6484 204.655 18.858 207.863 22.7222 210.094L111.778 260.983C115.646 263.217 120.034 264.392 124.5 264.392C128.966 264.392 133.354 263.217 137.222 260.983L226.278 210.094C230.142 207.863 233.352 204.655 235.585 200.792C237.818 196.929 238.995 192.547 239 188.085Z" stroke="black" stroke-width="20" stroke-linecap="round" stroke-linejoin="round"/>
</svg>
