<svg width="368" height="312" viewBox="0 0 368 312" fill="none" xmlns="http://www.w3.org/2000/svg">
<path d="M271 194.667V117.333C270.997 113.943 270.102 110.613 268.405 107.678C266.708 104.743 264.269 102.305 261.333 100.61L227.5 81.2767L193.667 61.9433C190.728 60.2465 187.394 59.3531 184 59.3531C180.606 59.3531 177.272 60.2465 174.333 61.9433L106.667 100.61C103.731 102.305 101.292 104.743 99.5951 107.678C97.8984 110.613 97.0035 113.943 97 117.333V194.667C97.0035 198.057 97.8984 201.387 99.5951 204.322C101.292 207.257 103.731 209.695 106.667 211.39L174.333 250.057C177.272 251.753 180.606 252.647 184 252.647C187.394 252.647 190.728 251.753 193.667 250.057L261.333 211.39C264.269 209.695 266.708 207.257 268.405 204.322C270.102 201.387 270.997 198.057 271 194.667Z" fill="#1BADFF"/>
<path d="M99.61 107.28L184 156.097L268.39 107.28" fill="#1BADFF"/>
<path d="M99.61 107.28L184 156.097L268.39 107.28M184 253.44V156M271 194.667V117.333C270.997 113.943 270.102 110.613 268.405 107.678C266.708 104.743 264.269 102.305 261.333 100.61L227.5 81.2767L193.667 61.9433C190.728 60.2465 187.394 59.3531 184 59.3531C180.606 59.3531 177.272 60.2465 174.333 61.9433L106.667 100.61C103.731 102.305 101.292 104.743 99.5951 107.678C97.8984 110.613 97.0035 113.943 97 117.333V194.667C97.0035 198.057 97.8984 201.387 99.5951 204.322C101.292 207.257 103.731 209.695 106.667 211.39L174.333 250.057C177.272 251.753 180.606 252.647 184 252.647C187.394 252.647 190.728 251.753 193.667 250.057L261.333 211.39C264.269 209.695 266.708 207.257 268.405 204.322C270.102 201.387 270.997 198.057 271 194.667Z" stroke="black" stroke-width="20" stroke-linecap="round" stroke-linejoin="round"/>
<path d="M184 145.314V67.9802C183.997 64.5898 183.102 61.26 181.405 58.3247C179.708 55.3895 177.269 52.952 174.333 51.2568L106.667 12.5902C103.728 10.8933 100.394 10 97 10C93.6063 10 90.2724 10.8933 87.3333 12.5902L19.6667 51.2568C16.7305 52.952 14.2918 55.3895 12.5951 58.3247C10.8984 61.26 10.0035 64.5898 10 67.9802V145.314C10.0035 148.704 10.8984 152.034 12.5951 154.969C14.2918 157.904 16.7305 160.342 19.6667 162.037L87.3333 200.703C90.2724 202.4 93.6063 203.294 97 203.294C100.394 203.294 103.728 202.4 106.667 200.703L174.333 162.037C177.269 160.342 179.708 157.904 181.405 154.969C183.102 152.034 183.997 148.704 184 145.314Z" fill="#FF4A8B"/>
<path d="M12.61 57.9268L97 106.744L181.39 57.9268" fill="#FF4A8B"/>
<path d="M12.61 57.9268L97 106.744L181.39 57.9268M97 204.087V106.647M184 145.314V67.9802C183.997 64.5898 183.102 61.26 181.405 58.3247C179.708 55.3895 177.269 52.952 174.333 51.2568L106.667 12.5902C103.728 10.8933 100.394 10 97 10C93.6063 10 90.2724 10.8933 87.3333 12.5902L19.6667 51.2568C16.7305 52.952 14.2918 55.3895 12.5951 58.3247C10.8984 61.26 10.0035 64.5898 10 67.9802V145.314C10.0035 148.704 10.8984 152.034 12.5951 154.969C14.2918 157.904 16.7305 160.342 19.6667 162.037L87.3333 200.703C90.2724 202.4 93.6063 203.294 97 203.294C100.394 203.294 103.728 202.4 106.667 200.703L174.333 162.037C177.269 160.342 179.708 157.904 181.405 154.969C183.102 152.034 183.997 148.704 184 145.314Z" stroke="black" stroke-width="20" stroke-linecap="round" stroke-linejoin="round"/>
<path d="M358 242.314V164.98C357.997 161.59 357.102 158.26 355.405 155.325C353.708 152.389 351.269 149.952 348.333 148.257L280.667 109.59C277.728 107.893 274.394 107 271 107C267.606 107 264.272 107.893 261.333 109.59L193.667 148.257C190.731 149.952 188.292 152.389 186.595 155.325C184.898 158.26 184.003 161.59 184 164.98V242.314C184.003 245.704 184.898 249.034 186.595 251.969C188.292 254.904 190.731 257.342 193.667 259.037L261.333 297.703C264.272 299.4 267.606 300.294 271 300.294C274.394 300.294 277.728 299.4 280.667 297.703L348.333 259.037C351.269 257.342 353.708 254.904 355.405 251.969C357.102 249.034 357.997 245.704 358 242.314Z" fill="#FF4A8B"/>
<path d="M186.61 154.927L271 203.744L355.39 154.927" fill="#FF4A8B"/>
<path d="M186.61 154.927L271 203.744L355.39 154.927M271 301.087V203.647M358 242.314V164.98C357.997 161.59 357.102 158.26 355.405 155.325C353.708 152.389 351.269 149.952 348.333 148.257L280.667 109.59C277.728 107.893 274.394 107 271 107C267.606 107 264.272 107.893 261.333 109.59L193.667 148.257C190.731 149.952 188.292 152.389 186.595 155.325C184.898 158.26 184.003 161.59 184 164.98V242.314C184.003 245.704 184.898 249.034 186.595 251.969C188.292 254.904 190.731 257.342 193.667 259.037L261.333 297.703C264.272 299.4 267.606 300.294 271 300.294C274.394 300.294 277.728 299.4 280.667 297.703L348.333 259.037C351.269 257.342 353.708 254.904 355.405 251.969C357.102 249.034 357.997 245.704 358 242.314Z" stroke="black" stroke-width="20" stroke-linecap="round" stroke-linejoin="round"/>
</svg>
